<svg id="visual" viewBox="0 0 1920 1080" width="1920" height="1080" xmlns="http://www.w3.org/2000/svg" xmlns:xlink="http://www.w3.org/1999/xlink" version="1.1"><path d="M0 33L960 98L1920 87L1920 0L960 0L0 0Z" fill="#272727"></path><path d="M0 131L960 206L1920 131L1920 85L960 96L0 31Z" fill="#2d2d2d"></path><path d="M0 282L960 282L1920 206L1920 129L960 204L0 129Z" fill="#333333"></path><path d="M0 401L960 368L1920 249L1920 204L960 280L0 280Z" fill="#393939"></path><path d="M0 465L960 390L1920 314L1920 247L960 366L0 399Z" fill="#3f3f3f"></path><path d="M0 671L960 530L1920 606L1920 312L960 388L0 463Z" fill="#464646"></path><path d="M0 725L960 595L1920 692L1920 604L960 528L0 669Z" fill="#4c4c4c"></path><path d="M0 789L960 627L1920 735L1920 690L960 593L0 723Z" fill="#535353"></path><path d="M0 930L960 941L1920 951L1920 733L960 625L0 787Z" fill="#595959"></path><path d="M0 1005L960 1027L1920 1016L1920 949L960 939L0 928Z" fill="#606060"></path><path d="M0 1049L960 1059L1920 1049L1920 1014L960 1025L0 1003Z" fill="#676767"></path><path d="M0 1081L960 1081L1920 1081L1920 1047L960 1057L0 1047Z" fill="#6e6e6e"></path></svg>